# xmcd
#
# Track frame offsets: 
#        150
#        17850
#        36830
#        56543
#        76140
#        94730
#        116473
#        133628
#        149468
#        170470
#        195940
#        217292
#        235415
#        252990
#        270478
#
# Disc length: 3941 seconds
#
# Revision: 0
# Processed by: cddbd v1.5.2PL0 Copyright (c) Steve Scherf et al.
# Submitted via: ExactAudioCopy v0.99pb3
#
DISCID=d20f630f
DTITLE=Kwon Bo-Young - PIANO MAGIC
DYEAR=2007
DGENRE=Blues
TTITLE0=The Promise
TTITLE1=Moonlight Waves
TTITLE2=Waiting
TTITLE3=Blue Lake
TTITLE4=All About You
TTITLE5=Tears
TTITLE6=Prayer
TTITLE7=Chasing Love
TTITLE8=La Lune
TTITLE9=Greatest Love
TTITLE10=Attraction
TTITLE11=My Wish
TTITLE12=Saviour
TTITLE13=Falling In Love
TTITLE14=Faith
EXTD=
EXTT0=
EXTT1=
EXTT2=
EXTT3=
EXTT4=
EXTT5=
EXTT6=
EXTT7=
EXTT8=
EXTT9=
EXTT10=
EXTT11=
EXTT12=
EXTT13=
EXTT14=
PLAYORDER=
